<?xml version="1.0" encoding="UTF-8" standalone="no"?>
<!DOCTYPE svg PUBLIC "-//W3C//DTD SVG 1.1//EN" "http://www.w3.org/Graphics/SVG/1.1/DTD/svg11.dtd">
<svg width="100%" height="100%" viewBox="0 0 1050 1050" version="1.1" xmlns="http://www.w3.org/2000/svg" xmlns:xlink="http://www.w3.org/1999/xlink" xml:space="preserve" xmlns:serif="http://www.serif.com/" style="fill-rule:evenodd;clip-rule:evenodd;stroke-linejoin:round;stroke-miterlimit:2;">
    <g transform="matrix(1,0,0,1,-1166.45,-1178.85)">
        <g id="favicon" transform="matrix(1.02539,0,0,1.02539,-72.786,1178.85)">
            <rect x="1208.55" y="0" width="1024" height="1024" style="fill:none;"/>
            <g id="Wespe" transform="matrix(0.893963,-8.9531e-33,8.87744e-33,0.901582,1221.53,242.264)">
                <g id="Flügel1" transform="matrix(3.50785,-1.06912e-16,-4.35719e-17,0.97758,-1704.95,-13.997)">
                    <path d="M743.501,510.678L557.27,442.069L759.208,595.22L743.501,510.678Z"/>
                </g>
                <g id="Flügel11" serif:id="Flügel1" transform="matrix(3.50785,1.06912e-16,-4.35719e-17,-0.97758,-1704.95,612.358)">
                    <path d="M743.501,510.678L557.27,442.069L759.208,595.22L743.501,510.678Z"/>
                </g>
                <g id="Schultern" transform="matrix(0.532154,-0.532154,0.532154,0.532154,-193.794,405.219)">
                    <rect x="560.167" y="360.421" width="168.368" height="168.368"/>
                </g>
                <g id="Kopf" transform="matrix(1.28161,7.43753e-50,3.2677e-48,1.28161,-134.054,-111.15)">
                    <path d="M343.406,288.174L301.611,246.379L228.023,319.968L301.611,393.557L343.406,351.762L311.611,319.968L343.406,288.174Z"/>
                </g>
                <g transform="matrix(1.76382,1.75155e-32,-1.75846e-32,1.77078,-345.826,-363.943)">
                    <path d="M479.269,426.537L692.569,374.353L479.269,322.135L454.04,345.708L482.668,374.336L454.032,402.972L479.269,426.537Z"/>
                </g>
            </g>
        </g>
    </g>
</svg>
